<svg width="158" height="40" viewBox="0 0 158 40" fill="none" xmlns="http://www.w3.org/2000/svg">
<g clip-path="url(#clip0_1380_1135)">
<mask id="mask0_1380_1135" style="mask-type:luminance" maskUnits="userSpaceOnUse" x="0" y="0" width="158" height="41">
<path d="M157.222 0H0.777832V40.0232H157.222V0Z" fill="white"/>
</mask>
<g mask="url(#mask0_1380_1135)">
<path d="M96.5173 12.0147C95.5814 12.0138 94.656 12.2097 93.8013 12.5895C92.9466 12.9693 92.1819 13.5244 91.5573 14.2186L90.7123 12.3693H87.6685V27.3465H91.5473V17.3009C92.4821 16.068 93.8759 15.2759 95.2532 15.2759C97.0595 15.2759 99.1786 16.3928 99.1786 18.388V27.3365H103.064V17.9339C103.064 14.0894 99.7707 12.0312 96.5173 12.0312" fill="#04283B"/>
<path d="M150.793 12.0204C148.877 12.0204 146.745 12.8987 145.627 14.2211V5.83594H145.244L141.825 7.49308V27.3489H145.627V17.3066C146.529 16.0704 147.896 15.2816 149.25 15.2816C151.019 15.2816 153.418 16.3985 153.418 18.3937V27.3423H157.22V17.933C157.22 14.0852 153.977 12.0303 150.793 12.0303" fill="#04283B"/>
<path d="M117.998 7.47707V13.857C116.671 12.6463 114.933 11.9839 113.134 12.0044C109.125 12.0044 105.762 15.0303 105.762 19.8459C105.762 24.6616 109.125 27.6875 113.134 27.6875C114.932 27.7075 116.67 27.0465 117.998 25.8382L118.576 27.3362H121.826V5.82324H121.417L117.998 7.47707ZM117.998 22.8421C116.901 23.8699 115.464 24.4598 113.959 24.4992C111.6 24.4992 109.565 22.736 109.535 19.8294C109.565 16.9228 111.6 15.1596 113.959 15.1596C115.464 15.199 116.901 15.7889 117.998 16.8167V22.8421Z" fill="#04283B"/>
<path d="M81.3328 12.3685L80.6242 13.9561C79.9725 13.3185 79.1987 12.818 78.3489 12.4844C77.4991 12.1507 76.5907 11.9907 75.6776 12.0139C71.6856 12.0139 68.3091 15.0399 68.3091 19.8555C68.3091 24.6711 71.6856 27.6971 75.6776 27.6971C77.4755 27.7178 79.2142 27.0566 80.5411 25.8477L81.1232 27.3458H84.3734V12.3685H81.3328ZM80.5411 22.8516C79.4453 23.88 78.0075 24.4699 76.5026 24.5087C74.144 24.5087 72.1114 22.7455 72.0815 19.8389C72.1114 16.9323 74.144 15.1691 76.5026 15.1691C78.0075 15.2079 79.4453 15.7979 80.5411 16.8262V22.8516Z" fill="#04283B"/>
<path d="M132.14 11.9217C127.816 11.9217 124.536 14.8018 124.536 19.6472C124.536 24.1679 127.423 27.6015 132.52 27.6015C134.642 27.6015 136.971 27.0149 138.208 26.3388L136.774 23.7735C135.546 24.192 134.26 24.4157 132.962 24.4364C130.371 24.4364 128.581 23.1405 128.168 20.6216H139.063C139.09 20.1245 139.12 19.5014 139.123 19.4053C139.15 15.057 136.645 11.915 132.137 11.915M128.308 17.9338C128.487 17.0606 128.97 16.2784 129.671 15.7249C130.372 15.1713 131.246 14.882 132.14 14.9078C134.083 14.9078 135.294 16.0546 135.557 17.9338H128.308Z" fill="#04283B"/>
<path d="M61.812 22.2722C60.8971 23.5051 59.5432 24.3005 58.1859 24.3005C56.4162 24.3005 54.0177 23.1836 54.0177 21.1851V12.3691H50.2153V21.7949C50.2153 25.6428 53.7648 27.6977 56.9484 27.6977H56.9684C59.0708 27.6977 60.6277 27.1409 61.772 26.0836C61.4959 28.0722 60.3383 29.4244 58.5685 29.958C57.9573 30.1157 57.3301 30.2035 56.6989 30.2198C55.7805 30.2099 54.865 30.1144 53.9644 29.9348V33.4579C54.9728 33.6557 55.9973 33.76 57.0249 33.7694C62.1546 33.7694 65.5843 30.5015 65.6143 25.4208V12.3691H61.812V22.2722Z" fill="#04283B"/>
<path d="M19.9699 10.3505H17.4583C17.1266 10.3505 16.8085 10.2192 16.5739 9.98549C16.3393 9.75179 16.2075 9.43483 16.2075 9.10432V1.24286C16.2075 1.07936 16.2399 0.917478 16.3028 0.766472C16.3657 0.615465 16.4579 0.478307 16.5741 0.362854C16.6903 0.247401 16.8282 0.155922 16.9799 0.0936581C17.1317 0.0313941 17.2942 -0.000431562 17.4583 4.41943e-06H19.9566C20.1207 -0.000431562 20.2833 0.0313941 20.435 0.0936581C20.5868 0.155922 20.7247 0.247401 20.8409 0.362854C20.9571 0.478307 21.0493 0.615465 21.1122 0.766472C21.1751 0.917478 21.2074 1.07936 21.2074 1.24286V9.10432C21.2074 9.43483 21.0757 9.75179 20.8411 9.98549C20.6065 10.2192 20.2884 10.3505 19.9566 10.3505" fill="#E65235"/>
<path d="M2.35354 32.0853L0.982975 30.0039C0.801316 29.7282 0.736786 29.392 0.803507 29.0689C0.870227 28.7459 1.06276 28.4624 1.33893 28.2805L8.60428 23.5278C8.88357 23.3482 9.22299 23.2864 9.54797 23.356C9.87296 23.4256 10.1569 23.6209 10.3374 23.899L11.708 25.9804C11.7982 26.117 11.8605 26.27 11.8913 26.4306C11.9221 26.5912 11.9207 26.7563 11.8874 26.9164C11.854 27.0765 11.7892 27.2284 11.6968 27.3636C11.6044 27.4987 11.4861 27.6143 11.3487 27.7038L4.08339 32.4432C3.94629 32.5331 3.79274 32.5952 3.63152 32.6258C3.47031 32.6565 3.30462 32.6552 3.14392 32.6219C2.98322 32.5887 2.83068 32.5241 2.69506 32.4321C2.55943 32.34 2.44337 32.2221 2.35354 32.0853Z" fill="#E65235"/>
<path d="M36.4886 9.99921L35.1213 7.91453C35.0317 7.77742 34.9159 7.65927 34.7804 7.56686C34.6449 7.47445 34.4924 7.40961 34.3317 7.37605C34.171 7.34248 34.0052 7.34086 33.8438 7.37127C33.6825 7.40169 33.5288 7.46354 33.3915 7.55328L19.393 16.6709C19.1894 16.8037 18.9512 16.8745 18.7078 16.8745C18.4643 16.8745 18.2261 16.8037 18.0225 16.6709L4.08392 7.55659C3.80676 7.37592 3.469 7.31214 3.14471 7.37924C2.82042 7.44634 2.53609 7.63885 2.35407 7.91453L0.983502 9.9959C0.893189 10.1327 0.830836 10.286 0.800014 10.4469C0.769191 10.6077 0.770504 10.7731 0.803871 10.9335C0.837239 11.0938 0.902016 11.2461 0.994486 11.3815C1.08696 11.5169 1.20531 11.6328 1.34278 11.7226L15.6473 21.0722C15.8198 21.1852 15.9616 21.3392 16.0597 21.5203C16.1578 21.7013 16.2093 21.9038 16.2095 22.1096L16.2361 38.7572C16.2378 39.0874 16.3707 39.4035 16.6057 39.6364C16.8407 39.8693 17.1587 40 17.4902 40H19.9885C20.1528 39.9996 20.3153 39.9669 20.4669 39.9039C20.6185 39.8409 20.7562 39.7487 20.872 39.6327C20.9878 39.5167 21.0796 39.3791 21.1421 39.2277C21.2045 39.0763 21.2364 38.9142 21.236 38.7506L21.2094 22.1195C21.2092 21.9119 21.2607 21.7076 21.3595 21.5247C21.4582 21.3419 21.6009 21.1864 21.7749 21.0722L36.1293 11.726C36.4065 11.5451 36.6004 11.2621 36.6684 10.939C36.7364 10.6158 36.6729 10.2791 36.4919 10.0025" fill="#E65235"/>
<path d="M27.1296 23.8988L25.7723 25.9669C25.6821 26.1035 25.6198 26.2565 25.589 26.4171C25.5583 26.5777 25.5596 26.7428 25.593 26.9029C25.6263 27.063 25.6911 27.215 25.7835 27.3501C25.876 27.4852 25.9942 27.6008 26.1316 27.6903L33.3969 32.443C33.534 32.5329 33.6876 32.595 33.8488 32.6256C34.01 32.6563 34.1757 32.655 34.3364 32.6217C34.4971 32.5885 34.6496 32.5239 34.7853 32.4318C34.9209 32.3398 35.037 32.2219 35.1268 32.0851L36.4973 30.0037C36.5876 29.8671 36.6499 29.7141 36.6807 29.5535C36.7114 29.3929 36.7101 29.2278 36.6767 29.0677C36.6433 28.9076 36.5786 28.7556 36.4861 28.6205C36.3937 28.4854 36.2754 28.3698 36.1381 28.2803L28.8727 23.5276C28.5956 23.3469 28.2578 23.2832 27.9335 23.3503C27.6092 23.4174 27.3249 23.6099 27.1429 23.8856" fill="#E65235"/>
</g>
</g>
<defs>
<clipPath id="clip0_1380_1135">
<rect width="156.444" height="40" fill="white" transform="translate(0.777832)"/>
</clipPath>
</defs>
</svg>
